<svg data-v-423bf9ae="" xmlns="http://www.w3.org/2000/svg" viewBox="0 0 189.39822861173198 60" class="font"><!----><!----><!----><g data-v-423bf9ae="" id="12768cf3-f890-4342-aa77-16337bf6e731" fill="white" transform="matrix(6.553572010786204,0,0,6.553572010786204,-2.7524980125272265,-6.256612288333095)"><path d="M2.04 3.56C2.04 2.79 2.60 2.37 3.51 2.37C4.23 2.37 5.17 2.62 6.23 3.16C6.78 3.44 6.69 1.93 6.20 1.69C5.35 1.25 4.41 1.02 3.53 1.02C1.85 1.02 0.42 1.88 0.42 3.68C0.42 5.52 1.90 5.82 3.21 6.10C4.26 6.31 5.19 6.51 5.19 7.43C5.19 8.20 4.56 8.64 3.57 8.64C2.84 8.64 1.90 8.40 0.88 7.88C0.31 7.59 0.39 9.14 0.91 9.38C1.78 9.81 2.74 10.05 3.64 10.05C5.38 10.05 6.85 9.20 6.85 7.41C6.85 5.39 5.32 5.08 3.99 4.83C2.95 4.63 2.04 4.47 2.04 3.56ZM8.55 9.63C8.55 10.19 10.21 10.19 10.21 9.63L10.21 1.22C10.21 0.56 8.55 1.26 8.55 1.92ZM21.84 8.57C21.71 8.62 21.60 8.64 21.52 8.64C21.24 8.64 21.11 8.44 21.11 8.05L21.11 7.50L21.11 1.44C21.11 0.88 19.61 0.94 19.49 1.26C18.79 2.86 17.91 4.44 16.72 5.96C15.50 4.44 14.66 2.86 13.94 1.26C13.82 0.94 12.32 0.88 12.32 1.44L12.32 9.63C12.32 10.19 13.96 10.19 13.96 9.63L13.96 4.54C14.84 6.12 15.85 7.57 16.38 7.94C16.58 8.05 16.86 8.05 17.04 7.94C17.58 7.57 18.59 6.10 19.47 4.52L19.47 7.27L19.47 8.29C19.47 9.66 20.05 10.11 20.79 10.11C21.11 10.11 21.49 10.01 21.84 9.87C22.44 9.60 22.41 8.29 21.84 8.57ZM24.51 3.56C24.51 2.79 25.07 2.37 25.98 2.37C26.70 2.37 27.64 2.62 28.70 3.16C29.25 3.44 29.16 1.93 28.67 1.69C27.82 1.25 26.88 1.02 26.00 1.02C24.32 1.02 22.89 1.88 22.89 3.68C22.89 5.52 24.37 5.82 25.68 6.10C26.73 6.31 27.66 6.51 27.66 7.43C27.66 8.20 27.03 8.64 26.04 8.64C25.31 8.64 24.37 8.40 23.35 7.88C22.78 7.59 22.86 9.14 23.38 9.38C24.25 9.81 25.21 10.05 26.11 10.05C27.85 10.05 29.32 9.20 29.32 7.41C29.32 5.39 27.79 5.08 26.46 4.83C25.42 4.63 24.51 4.47 24.51 3.56Z"></path></g><!----><!----></svg>